<svg width="16" height="16" viewBox="0 0 16 16" fill="none" xmlns="http://www.w3.org/2000/svg">
<path fill-rule="evenodd" clip-rule="evenodd" d="M10.921 10.2656H11.6452L15.5319 14.1706C15.9077 14.5464 15.9077 15.1606 15.5319 15.5364C15.156 15.9123 14.5419 15.9123 14.166 15.5364L10.2702 11.6406V10.9164L10.0227 10.6598C8.73935 11.7598 6.98852 12.3281 5.12769 12.0164C2.57935 11.5856 0.544353 9.45894 0.232686 6.89228C-0.243981 3.01478 3.01935 -0.248558 6.89685 0.228108C9.46352 0.539775 11.5902 2.57477 12.021 5.12311C12.3327 6.98394 11.7644 8.73477 10.6644 10.0181L10.921 10.2656ZM2.02019 6.14061C2.02019 8.42311 3.86269 10.2656 6.14519 10.2656C8.42769 10.2656 10.2702 8.42311 10.2702 6.14061C10.2702 3.85811 8.42769 2.01561 6.14519 2.01561C3.86269 2.01561 2.02019 3.85811 2.02019 6.14061Z" fill="#8B98A6"/>
</svg>
