<svg width="25" height="24" viewBox="0 0 25 24" fill="none" xmlns="http://www.w3.org/2000/svg">
<g id="notification_important_24px">
<path id="icon/alert/notification_important_24px" fill-rule="evenodd" clip-rule="evenodd" d="M19.0002 16.75L20.2902 18.04C20.9202 18.67 20.4802 19.75 19.5802 19.75H4.41017C3.52017 19.75 3.08017 18.67 3.71017 18.04L5.00017 16.75V10.75C5.00017 7.4 7.36017 4.6 10.5002 3.92V2.75C10.5002 1.92 11.1702 1.25 12.0002 1.25C12.8302 1.25 13.5002 1.92 13.5002 2.75V3.92C16.6402 4.6 19.0002 7.4 19.0002 10.75V16.75ZM13.9101 22.76C13.9101 23.4233 13.038 23.96 11.9601 23.96C10.8822 23.96 10.0101 23.4233 10.0101 22.76H13.9101Z" fill="#A8B4BF"/>
<circle id="Ellipse 2" cx="20" cy="9" r="4.5" fill="#FF5757" stroke="white"/>
</g>
</svg>
